<svg xmlns="http://www.w3.org/2000/svg" width="609.762" height="459.159"><defs><clipPath id="c"><path fill="url(#a)" d="M0 0h603.724v447.125H0z" data-name="Rectángulo 4364"/></clipPath><clipPath id="d"><path fill="url(#b)" d="M0 0h141.762v362.124H0z" data-name="Rectángulo 4368"/></clipPath><clipPath id="f"><path fill="none" d="M0 0h39.688v35.754H0z" data-name="Rectángulo 4365"/></clipPath><clipPath id="g"><path fill="none" d="M0 0h25.688v23.142H0z" data-name="Rectángulo 4365"/></clipPath><linearGradient id="a" x1=".5" x2=".5" y2="1" gradientUnits="objectBoundingBox"><stop offset="0" stop-color="#1a65bc"/><stop offset="1" stop-color="#008ff2"/></linearGradient><linearGradient id="b" x1=".5" x2=".5" y2="1" gradientUnits="objectBoundingBox"><stop offset="0" stop-color="#ff5a00"/><stop offset="1" stop-color="#ffbc00"/></linearGradient><linearGradient id="e" x1=".5" x2=".5" y2="1" gradientUnits="objectBoundingBox"><stop offset="0" stop-color="#d109c8"/><stop offset="1" stop-color="#f40019"/></linearGradient></defs><g data-name="Grupo 9216"><g data-name="Grupo 9163" opacity=".04"><g clip-path="url(#c)" data-name="Grupo 9162" transform="rotate(180 301.862 226.563)"><path fill="url(#a)" d="M535.679 5.929c40.6 7.4 86.285 57.089 60.571 152.449s-95.211 65.671-70.269 164.5S412 461.464 360.777 442.554s-59.293-36.618-149.286-4.617-151.817-43.108-134.444-108.6c20.294-76.5-151.552-94.506-37.836-211.207C127.811 27.2 410.639-16.861 535.679 5.929" data-name="Trazado 12849"/></g></g><g data-name="Grupo 9173" opacity=".17"><g clip-path="url(#d)" data-name="Grupo 9172" transform="translate(468)"><g data-name="Grupo 9171"><g clip-path="url(#d)" data-name="Grupo 9170"><g data-name="Grupo 9169" style="mix-blend-mode:multiply;isolation:isolate"><g data-name="Grupo 9168"><g clip-path="url(#d)" data-name="Grupo 9167"><path fill="url(#b)" d="M138.253 7.018a3.509 3.509 0 1 1 3.509-3.509 3.509 3.509 0 0 1-3.509 3.509m3.509 12.632a3.509 3.509 0 1 0-3.509 3.509 3.509 3.509 0 0 0 3.509-3.509m0 16.142a3.509 3.509 0 1 0-3.509 3.509 3.509 3.509 0 0 0 3.509-3.509m0 16.141a3.509 3.509 0 1 0-3.509 3.509 3.509 3.509 0 0 0 3.509-3.509m0 16.141a3.509 3.509 0 1 0-3.509 3.509 3.509 3.509 0 0 0 3.509-3.509m0 16.141a3.509 3.509 0 1 0-3.509 3.509 3.509 3.509 0 0 0 3.509-3.509m0 16.141a3.509 3.509 0 1 0-3.509 3.509 3.509 3.509 0 0 0 3.509-3.509m0 16.141a3.509 3.509 0 1 0-3.509 3.509 3.509 3.509 0 0 0 3.509-3.509m0 16.141a3.509 3.509 0 1 0-3.509 3.509 3.509 3.509 0 0 0 3.509-3.509m0 16.141a3.509 3.509 0 1 0-3.509 3.509 3.509 3.509 0 0 0 3.509-3.509m0 16.141a3.509 3.509 0 1 0-3.509 3.509 3.509 3.509 0 0 0 3.509-3.509m0 16.142a3.509 3.509 0 1 0-3.509 3.509 3.509 3.509 0 0 0 3.509-3.509m0 16.141a3.509 3.509 0 1 0-3.509 3.509 3.509 3.509 0 0 0 3.509-3.509m0 16.141a3.509 3.509 0 1 0-3.509 3.509 3.509 3.509 0 0 0 3.509-3.509m0 16.141a3.509 3.509 0 1 0-3.509 3.509 3.509 3.509 0 0 0 3.509-3.509m0 16.141a3.509 3.509 0 1 0-3.509 3.509 3.509 3.509 0 0 0 3.509-3.509m0 16.141a3.509 3.509 0 1 0-3.509 3.509 3.509 3.509 0 0 0 3.509-3.509m0 16.141a3.509 3.509 0 1 0-3.509 3.509 3.509 3.509 0 0 0 3.509-3.509m0 16.141a3.509 3.509 0 1 0-3.509 3.509 3.509 3.509 0 0 0 3.509-3.509m0 16.142a3.509 3.509 0 1 0-3.509 3.509 3.509 3.509 0 0 0 3.509-3.509m0 16.141a3.509 3.509 0 1 0-3.509 3.509 3.509 3.509 0 0 0 3.509-3.509m0 16.141a3.509 3.509 0 1 0-3.509 3.509 3.509 3.509 0 0 0 3.509-3.509m0 16.141a3.509 3.509 0 1 0-3.509 3.509 3.509 3.509 0 0 0 3.509-3.509M124.919 3.509a3.509 3.509 0 1 0-3.509 3.509 3.509 3.509 0 0 0 3.509-3.509m0 16.141a3.509 3.509 0 1 0-3.509 3.509 3.509 3.509 0 0 0 3.509-3.509m0 16.142a3.509 3.509 0 1 0-3.509 3.508 3.509 3.509 0 0 0 3.509-3.509m0 16.141a3.509 3.509 0 1 0-3.509 3.509 3.509 3.509 0 0 0 3.509-3.509m0 16.141a3.509 3.509 0 1 0-3.509 3.509 3.509 3.509 0 0 0 3.509-3.509m0 16.141a3.509 3.509 0 1 0-3.509 3.509 3.509 3.509 0 0 0 3.509-3.509m0 16.141a3.509 3.509 0 1 0-3.509 3.509 3.509 3.509 0 0 0 3.509-3.509m0 16.141a3.509 3.509 0 1 0-3.509 3.509 3.509 3.509 0 0 0 3.509-3.509m0 16.141a3.509 3.509 0 1 0-3.509 3.509 3.509 3.509 0 0 0 3.509-3.509m0 16.141a3.509 3.509 0 1 0-3.509 3.509 3.509 3.509 0 0 0 3.509-3.509m0 16.141a3.509 3.509 0 1 0-3.509 3.509 3.509 3.509 0 0 0 3.509-3.509m0 16.142a3.509 3.509 0 1 0-3.509 3.509 3.509 3.509 0 0 0 3.509-3.509m0 16.141a3.509 3.509 0 1 0-3.509 3.509 3.509 3.509 0 0 0 3.509-3.509m0 16.141a3.509 3.509 0 1 0-3.509 3.509 3.509 3.509 0 0 0 3.509-3.509m0 16.141a3.509 3.509 0 1 0-3.509 3.509 3.509 3.509 0 0 0 3.509-3.509m0 16.141a3.509 3.509 0 1 0-3.509 3.509 3.509 3.509 0 0 0 3.509-3.509m0 16.141a3.509 3.509 0 1 0-3.509 3.509 3.509 3.509 0 0 0 3.509-3.509m0 16.141a3.509 3.509 0 1 0-3.509 3.509 3.509 3.509 0 0 0 3.509-3.509m0 16.141a3.509 3.509 0 1 0-3.509 3.509 3.509 3.509 0 0 0 3.509-3.509m0 16.142a3.509 3.509 0 1 0-3.509 3.509 3.509 3.509 0 0 0 3.509-3.509m0 16.141a3.509 3.509 0 1 0-3.509 3.509 3.509 3.509 0 0 0 3.509-3.509m0 16.141a3.509 3.509 0 1 0-3.509 3.509 3.509 3.509 0 0 0 3.509-3.509m0 16.141a3.509 3.509 0 1 0-3.509 3.509 3.509 3.509 0 0 0 3.509-3.509M108.076 3.509a3.509 3.509 0 1 0-3.509 3.509 3.509 3.509 0 0 0 3.509-3.509m0 16.141a3.509 3.509 0 1 0-3.509 3.509 3.509 3.509 0 0 0 3.509-3.509m0 16.142a3.509 3.509 0 1 0-3.509 3.509 3.509 3.509 0 0 0 3.509-3.509m0 16.141a3.509 3.509 0 1 0-3.509 3.509 3.509 3.509 0 0 0 3.509-3.509m0 16.141a3.509 3.509 0 1 0-3.509 3.509 3.509 3.509 0 0 0 3.509-3.509m0 16.141a3.509 3.509 0 1 0-3.509 3.509 3.509 3.509 0 0 0 3.509-3.509m0 16.141a3.509 3.509 0 1 0-3.509 3.509 3.509 3.509 0 0 0 3.509-3.509m0 16.141a3.509 3.509 0 1 0-3.509 3.509 3.509 3.509 0 0 0 3.509-3.509m0 16.141a3.509 3.509 0 1 0-3.509 3.509 3.509 3.509 0 0 0 3.509-3.509m0 16.141a3.509 3.509 0 1 0-3.509 3.509 3.509 3.509 0 0 0 3.509-3.509m0 16.141a3.509 3.509 0 1 0-3.509 3.509 3.509 3.509 0 0 0 3.509-3.509m0 16.142a3.509 3.509 0 1 0-3.509 3.509 3.509 3.509 0 0 0 3.509-3.509m0 16.141a3.509 3.509 0 1 0-3.509 3.509 3.509 3.509 0 0 0 3.509-3.509m0 16.141a3.509 3.509 0 1 0-3.509 3.509 3.509 3.509 0 0 0 3.509-3.509m0 16.141a3.509 3.509 0 1 0-3.509 3.509 3.509 3.509 0 0 0 3.509-3.509m0 16.141a3.509 3.509 0 1 0-3.509 3.509 3.509 3.509 0 0 0 3.509-3.509m0 16.141a3.509 3.509 0 1 0-3.509 3.509 3.509 3.509 0 0 0 3.509-3.509m0 16.141a3.509 3.509 0 1 0-3.509 3.509 3.509 3.509 0 0 0 3.509-3.509m0 16.141a3.509 3.509 0 1 0-3.509 3.509 3.509 3.509 0 0 0 3.509-3.509m0 16.142a3.509 3.509 0 1 0-3.509 3.509 3.509 3.509 0 0 0 3.509-3.509m0 16.141a3.509 3.509 0 1 0-3.509 3.509 3.509 3.509 0 0 0 3.509-3.509m0 16.141a3.509 3.509 0 1 0-3.509 3.509 3.509 3.509 0 0 0 3.509-3.509m0 16.141a3.509 3.509 0 1 0-3.509 3.509 3.509 3.509 0 0 0 3.509-3.509M91.233 3.509a3.509 3.509 0 1 0-3.509 3.509 3.509 3.509 0 0 0 3.509-3.509m0 16.141a3.509 3.509 0 1 0-3.509 3.509 3.509 3.509 0 0 0 3.509-3.509m0 16.142a3.509 3.509 0 1 0-3.509 3.508 3.509 3.509 0 0 0 3.509-3.509m0 16.141a3.509 3.509 0 1 0-3.509 3.509 3.509 3.509 0 0 0 3.509-3.509m0 16.141a3.509 3.509 0 1 0-3.509 3.509 3.509 3.509 0 0 0 3.509-3.509m0 16.141a3.509 3.509 0 1 0-3.509 3.509 3.509 3.509 0 0 0 3.509-3.509m0 16.141a3.509 3.509 0 1 0-3.509 3.509 3.509 3.509 0 0 0 3.509-3.509m0 16.141a3.509 3.509 0 1 0-3.509 3.509 3.509 3.509 0 0 0 3.509-3.509m0 16.141a3.509 3.509 0 1 0-3.509 3.509 3.509 3.509 0 0 0 3.509-3.509m0 16.141a3.509 3.509 0 1 0-3.509 3.509 3.509 3.509 0 0 0 3.509-3.509m0 16.141a3.509 3.509 0 1 0-3.509 3.509 3.509 3.509 0 0 0 3.509-3.509m0 16.142a3.509 3.509 0 1 0-3.509 3.509 3.509 3.509 0 0 0 3.509-3.509m0 16.141a3.509 3.509 0 1 0-3.509 3.509 3.509 3.509 0 0 0 3.509-3.509m0 16.141a3.509 3.509 0 1 0-3.509 3.509 3.509 3.509 0 0 0 3.509-3.509m0 16.141a3.509 3.509 0 1 0-3.509 3.509 3.509 3.509 0 0 0 3.509-3.509m0 16.141a3.509 3.509 0 1 0-3.509 3.509 3.509 3.509 0 0 0 3.509-3.509m0 16.141a3.509 3.509 0 1 0-3.509 3.509 3.509 3.509 0 0 0 3.509-3.509m0 16.141a3.509 3.509 0 1 0-3.509 3.509 3.509 3.509 0 0 0 3.509-3.509m0 16.141a3.509 3.509 0 1 0-3.509 3.509 3.509 3.509 0 0 0 3.509-3.509m0 16.142a3.509 3.509 0 1 0-3.509 3.509 3.509 3.509 0 0 0 3.509-3.509m0 16.141a3.509 3.509 0 1 0-3.509 3.509 3.509 3.509 0 0 0 3.509-3.509m0 16.141a3.509 3.509 0 1 0-3.509 3.509 3.509 3.509 0 0 0 3.509-3.509m0 16.141a3.509 3.509 0 1 0-3.509 3.509 3.509 3.509 0 0 0 3.509-3.509M74.39 3.509a3.509 3.509 0 1 0-3.509 3.509 3.509 3.509 0 0 0 3.509-3.509m0 16.141a3.509 3.509 0 1 0-3.509 3.509 3.509 3.509 0 0 0 3.509-3.509m0 16.142a3.509 3.509 0 1 0-3.509 3.508 3.509 3.509 0 0 0 3.509-3.509m0 16.141a3.509 3.509 0 1 0-3.509 3.509 3.509 3.509 0 0 0 3.509-3.509m0 16.141a3.509 3.509 0 1 0-3.509 3.509 3.509 3.509 0 0 0 3.509-3.509m0 16.141a3.509 3.509 0 1 0-3.509 3.509 3.509 3.509 0 0 0 3.509-3.509m0 16.141a3.509 3.509 0 1 0-3.509 3.509 3.509 3.509 0 0 0 3.509-3.509m0 16.141a3.509 3.509 0 1 0-3.509 3.509 3.509 3.509 0 0 0 3.509-3.505m0 16.141a3.509 3.509 0 1 0-3.509 3.509 3.509 3.509 0 0 0 3.509-3.509m0 16.141a3.509 3.509 0 1 0-3.509 3.509 3.509 3.509 0 0 0 3.509-3.509m0 16.141a3.509 3.509 0 1 0-3.509 3.509 3.509 3.509 0 0 0 3.509-3.509m0 16.142a3.509 3.509 0 1 0-3.509 3.509 3.509 3.509 0 0 0 3.509-3.509m0 16.141a3.509 3.509 0 1 0-3.509 3.509 3.509 3.509 0 0 0 3.509-3.515m0 16.141a3.509 3.509 0 1 0-3.509 3.509 3.509 3.509 0 0 0 3.509-3.509m0 16.141a3.509 3.509 0 1 0-3.509 3.509 3.509 3.509 0 0 0 3.509-3.509m0 16.141a3.509 3.509 0 1 0-3.509 3.509 3.509 3.509 0 0 0 3.509-3.509m0 16.141a3.509 3.509 0 1 0-3.509 3.509 3.509 3.509 0 0 0 3.509-3.509m0 16.141a3.509 3.509 0 1 0-3.509 3.509 3.509 3.509 0 0 0 3.509-3.509m0 16.141a3.509 3.509 0 1 0-3.509 3.509 3.509 3.509 0 0 0 3.509-3.509m0 16.142a3.509 3.509 0 1 0-3.509 3.509 3.509 3.509 0 0 0 3.509-3.509m0 16.141a3.509 3.509 0 1 0-3.509 3.509 3.509 3.509 0 0 0 3.509-3.509m0 16.141a3.509 3.509 0 1 0-3.509 3.509 3.509 3.509 0 0 0 3.509-3.509m0 16.141a3.509 3.509 0 1 0-3.509 3.509 3.509 3.509 0 0 0 3.509-3.509M57.547 3.509a3.509 3.509 0 1 0-3.509 3.509 3.509 3.509 0 0 0 3.509-3.509m0 16.141a3.509 3.509 0 1 0-3.509 3.509 3.509 3.509 0 0 0 3.509-3.509m0 16.142a3.509 3.509 0 1 0-3.509 3.508 3.509 3.509 0 0 0 3.509-3.509m0 16.141a3.509 3.509 0 1 0-3.509 3.509 3.509 3.509 0 0 0 3.509-3.509m0 16.141a3.509 3.509 0 1 0-3.509 3.509 3.509 3.509 0 0 0 3.509-3.509m0 16.141a3.509 3.509 0 1 0-3.509 3.509 3.509 3.509 0 0 0 3.509-3.509m0 16.141a3.509 3.509 0 1 0-3.509 3.509 3.509 3.509 0 0 0 3.509-3.509m0 16.141a3.509 3.509 0 1 0-3.509 3.509 3.509 3.509 0 0 0 3.509-3.509m0 16.141a3.509 3.509 0 1 0-3.509 3.509 3.509 3.509 0 0 0 3.509-3.509m0 16.141a3.509 3.509 0 1 0-3.509 3.509 3.509 3.509 0 0 0 3.509-3.509m0 16.141a3.509 3.509 0 1 0-3.509 3.509 3.509 3.509 0 0 0 3.509-3.509m0 16.142a3.509 3.509 0 1 0-3.509 3.509 3.509 3.509 0 0 0 3.509-3.509m0 16.141a3.509 3.509 0 1 0-3.509 3.509 3.509 3.509 0 0 0 3.509-3.509m0 16.141a3.509 3.509 0 1 0-3.509 3.509 3.509 3.509 0 0 0 3.509-3.509m0 16.141a3.509 3.509 0 1 0-3.509 3.509 3.509 3.509 0 0 0 3.509-3.509m0 16.141a3.509 3.509 0 1 0-3.509 3.509 3.509 3.509 0 0 0 3.509-3.509m0 16.141a3.509 3.509 0 1 0-3.509 3.509 3.509 3.509 0 0 0 3.509-3.509m0 16.141a3.509 3.509 0 1 0-3.509 3.509 3.509 3.509 0 0 0 3.509-3.509m0 16.141a3.509 3.509 0 1 0-3.509 3.509 3.509 3.509 0 0 0 3.509-3.509m0 16.142a3.509 3.509 0 1 0-3.509 3.509 3.509 3.509 0 0 0 3.509-3.509m0 16.141a3.509 3.509 0 1 0-3.509 3.509 3.509 3.509 0 0 0 3.509-3.509m0 16.141a3.509 3.509 0 1 0-3.509 3.509 3.509 3.509 0 0 0 3.509-3.509m0 16.141a3.509 3.509 0 1 0-3.509 3.509 3.509 3.509 0 0 0 3.509-3.509M40.7 3.509a3.509 3.509 0 1 0-3.509 3.509A3.509 3.509 0 0 0 40.7 3.509m0 16.141a3.509 3.509 0 1 0-3.509 3.509A3.509 3.509 0 0 0 40.7 19.65m0 16.142a3.509 3.509 0 1 0-3.505 3.508 3.509 3.509 0 0 0 3.505-3.508m0 16.141a3.509 3.509 0 1 0-3.509 3.509 3.509 3.509 0 0 0 3.509-3.509m0 16.141a3.509 3.509 0 1 0-3.509 3.509 3.509 3.509 0 0 0 3.509-3.509m0 16.141a3.509 3.509 0 1 0-3.509 3.509 3.509 3.509 0 0 0 3.509-3.509m0 16.141a3.509 3.509 0 1 0-3.509 3.509 3.509 3.509 0 0 0 3.509-3.509m0 16.141a3.509 3.509 0 1 0-3.509 3.509A3.509 3.509 0 0 0 40.7 116.5m0 16.141a3.509 3.509 0 1 0-3.509 3.509 3.509 3.509 0 0 0 3.509-3.509m0 16.141a3.509 3.509 0 1 0-3.509 3.509 3.509 3.509 0 0 0 3.509-3.509m0 16.141a3.509 3.509 0 1 0-3.509 3.509 3.509 3.509 0 0 0 3.509-3.509m0 16.142a3.509 3.509 0 1 0-3.509 3.509 3.509 3.509 0 0 0 3.509-3.509m0 16.141a3.509 3.509 0 1 0-3.509 3.509A3.509 3.509 0 0 0 40.7 197.2m0 16.141a3.509 3.509 0 1 0-3.509 3.509 3.509 3.509 0 0 0 3.509-3.509m0 16.141a3.509 3.509 0 1 0-3.509 3.509 3.509 3.509 0 0 0 3.509-3.509m0 16.141a3.509 3.509 0 1 0-3.509 3.509 3.509 3.509 0 0 0 3.509-3.509m0 16.141a3.509 3.509 0 1 0-3.509 3.509 3.509 3.509 0 0 0 3.509-3.509m0 16.141a3.509 3.509 0 1 0-3.509 3.509 3.509 3.509 0 0 0 3.509-3.509m0 16.141a3.509 3.509 0 1 0-3.509 3.509 3.509 3.509 0 0 0 3.509-3.505m0 16.142a3.509 3.509 0 1 0-3.509 3.509 3.509 3.509 0 0 0 3.509-3.509m0 16.141a3.509 3.509 0 1 0-3.509 3.509 3.509 3.509 0 0 0 3.509-3.509m0 16.141a3.509 3.509 0 1 0-3.509 3.509 3.509 3.509 0 0 0 3.509-3.509m0 16.141a3.509 3.509 0 1 0-3.509 3.509 3.509 3.509 0 0 0 3.509-3.509M23.861 3.509a3.509 3.509 0 1 0-3.509 3.509 3.509 3.509 0 0 0 3.509-3.509m0 16.141a3.509 3.509 0 1 0-3.509 3.509 3.509 3.509 0 0 0 3.509-3.509m0 16.142a3.509 3.509 0 1 0-3.509 3.508 3.509 3.509 0 0 0 3.509-3.509m0 16.141a3.509 3.509 0 1 0-3.509 3.509 3.509 3.509 0 0 0 3.509-3.509m0 16.141a3.509 3.509 0 1 0-3.509 3.509 3.509 3.509 0 0 0 3.509-3.509m0 16.141a3.509 3.509 0 1 0-3.509 3.509 3.509 3.509 0 0 0 3.509-3.509m0 16.141a3.509 3.509 0 1 0-3.509 3.509 3.509 3.509 0 0 0 3.509-3.509m0 16.141a3.509 3.509 0 1 0-3.509 3.509 3.509 3.509 0 0 0 3.509-3.509m0 16.141a3.509 3.509 0 1 0-3.509 3.509 3.509 3.509 0 0 0 3.509-3.509m0 16.141a3.509 3.509 0 1 0-3.509 3.509 3.509 3.509 0 0 0 3.509-3.509m0 16.141a3.509 3.509 0 1 0-3.509 3.509 3.509 3.509 0 0 0 3.509-3.509m0 16.142a3.509 3.509 0 1 0-3.509 3.509 3.509 3.509 0 0 0 3.509-3.509m0 16.141a3.509 3.509 0 1 0-3.509 3.509 3.509 3.509 0 0 0 3.509-3.509m0 16.141a3.509 3.509 0 1 0-3.509 3.509 3.509 3.509 0 0 0 3.509-3.509m0 16.141a3.509 3.509 0 1 0-3.509 3.509 3.509 3.509 0 0 0 3.509-3.509m0 16.141a3.509 3.509 0 1 0-3.509 3.509 3.509 3.509 0 0 0 3.509-3.509m0 16.141a3.509 3.509 0 1 0-3.509 3.509 3.509 3.509 0 0 0 3.509-3.509m0 16.141a3.509 3.509 0 1 0-3.509 3.509 3.509 3.509 0 0 0 3.509-3.509m0 16.141a3.509 3.509 0 1 0-3.509 3.509 3.509 3.509 0 0 0 3.509-3.509m0 16.142a3.509 3.509 0 1 0-3.509 3.509 3.509 3.509 0 0 0 3.509-3.509m0 16.141a3.509 3.509 0 1 0-3.509 3.509 3.509 3.509 0 0 0 3.509-3.509m0 16.141a3.509 3.509 0 1 0-3.509 3.509 3.509 3.509 0 0 0 3.509-3.509m0 16.141a3.509 3.509 0 1 0-3.509 3.509 3.509 3.509 0 0 0 3.509-3.509M7.018 3.509a3.509 3.509 0 1 0-3.509 3.509 3.509 3.509 0 0 0 3.509-3.509m0 16.141a3.509 3.509 0 1 0-3.509 3.509 3.509 3.509 0 0 0 3.509-3.509m0 16.142A3.509 3.509 0 1 0 3.509 39.3a3.509 3.509 0 0 0 3.509-3.509m0 16.141a3.509 3.509 0 1 0-3.509 3.509 3.509 3.509 0 0 0 3.509-3.509m0 16.141a3.509 3.509 0 1 0-3.509 3.509 3.509 3.509 0 0 0 3.509-3.509m0 16.141a3.509 3.509 0 1 0-3.509 3.509 3.509 3.509 0 0 0 3.509-3.509m0 16.141a3.509 3.509 0 1 0-3.509 3.509 3.509 3.509 0 0 0 3.509-3.509m0 16.141a3.509 3.509 0 1 0-3.509 3.509 3.509 3.509 0 0 0 3.509-3.505m0 16.141a3.509 3.509 0 1 0-3.509 3.509 3.509 3.509 0 0 0 3.509-3.509m0 16.141a3.509 3.509 0 1 0-3.509 3.509 3.509 3.509 0 0 0 3.509-3.509m0 16.141a3.509 3.509 0 1 0-3.509 3.509 3.509 3.509 0 0 0 3.509-3.509m0 16.142a3.509 3.509 0 1 0-3.509 3.509 3.509 3.509 0 0 0 3.509-3.509m0 16.141a3.509 3.509 0 1 0-3.509 3.509 3.509 3.509 0 0 0 3.509-3.515m0 16.141a3.509 3.509 0 1 0-3.509 3.509 3.509 3.509 0 0 0 3.509-3.509m0 16.141a3.509 3.509 0 1 0-3.509 3.509 3.509 3.509 0 0 0 3.509-3.509m0 16.141a3.509 3.509 0 1 0-3.509 3.509 3.509 3.509 0 0 0 3.509-3.509m0 16.141a3.509 3.509 0 1 0-3.509 3.509 3.509 3.509 0 0 0 3.509-3.509m0 16.141a3.509 3.509 0 1 0-3.509 3.509 3.509 3.509 0 0 0 3.509-3.509m0 16.141a3.509 3.509 0 1 0-3.509 3.509 3.509 3.509 0 0 0 3.509-3.509m0 16.142a3.509 3.509 0 1 0-3.509 3.512 3.509 3.509 0 0 0 3.509-3.509m0 16.141a3.509 3.509 0 1 0-3.509 3.509 3.509 3.509 0 0 0 3.509-3.509m0 16.141a3.509 3.509 0 1 0-3.509 3.509 3.509 3.509 0 0 0 3.509-3.509m0 16.141a3.509 3.509 0 1 0-3.509 3.509 3.509 3.509 0 0 0 3.509-3.509" data-name="Trazado 12856"/></g></g></g></g></g></g></g><g data-name="Grupo 9140"><path fill="#fff" d="M70.597 222.546h113.377a15.558 15.558 0 0 0 15.513-15.51V93.655a15.558 15.558 0 0 0-15.513-15.508H70.597a15.557 15.557 0 0 0-15.51 15.508v113.381a15.558 15.558 0 0 0 15.51 15.51" data-name="Trazado 12855"/><path fill="#fff" d="M520.205 411.192s-14.327-31.265-18.106-40.6-12.825-31.36-16.459-45.461-7.325-26.782-5.266-37.241 13.716-9.784 17.616-7.9 12.715 10.789 12.715 10.789-1.45-19.785-2.268-34.564-.664-31.52 4.341-43.455 14.931-12.335 20.182-7.893 12.966 16.143 14.83 44.415-.006 63.332-1.1 75.943-3.585 35.341-3.585 35.341 5.028-16.63 11.958-26.367 11.912-10.619 16.618-8.827 5.2 13 1.366 24.3-16.685 40.668-22.021 50.472-5.936 10.871-5.936 10.871-15.18 1.563-24.888.177" data-name="Trazado 12854"/><path fill="#fff" d="M137.979 304.123c3.706-2.323 12.324-5.64 17.471-5.64h108.798c9.766 0 18.407 5.231 21.365 12.927l28.661 74.653a15.608 15.608 0 0 1-1.777 14.629l-10.7 7.841s-7.191 4.526-11.613 4.526h-24.763l-107.886-65.44Z" data-name="Trazado 12551"/><path fill="#1a1a1a" d="M265.422 413.732h24.758c4.567 0 11.674-4.434 11.973-4.622l10.743-7.873a16.184 16.184 0 0 0 2.012-15.421L286.25 311.16c-3.077-7.989-11.915-13.353-22-13.353H155.453c-5.292 0-14.1 3.4-17.83 5.736-.261.853 19.3 44.351 19.3 44.351.264.3 108.147 65.739 108.147 65.739a.7.7 0 0 0 .354.1m46.578-13.518-10.607 7.774c-.029.015-7.035 4.387-11.213 4.387h-24.573l-107.541-65.23-19.222-42.759c3.836-2.233 11.773-5.225 16.607-5.225h108.793c9.528 0 17.862 5.019 20.736 12.489l28.661 74.654a14.877 14.877 0 0 1-1.644 13.907" data-name="Trazado 12552"/><path fill="#fff" d="M214.014 413.328h63.643c15.165 0 25.952-12.19 21.362-24.143l-28.663-74.653c-2.955-7.7-11.6-12.93-21.362-12.93h-108.8c-15.165 0-25.952 12.193-21.362 24.146l28.66 74.653c2.958 7.7 11.6 12.927 21.365 12.927h45.157Z" data-name="Trazado 12563"/><path fill="none" d="M16.003 0h572v459.158h-572z" data-name="Rectángulo 4341"/><path fill="url(#b)" d="M195.542 215.737h63.643c15.165 0 25.952-12.19 21.362-24.143l-28.663-74.653c-2.955-7.7-11.6-12.93-21.362-12.93h-108.8c-15.165 0-25.952 12.193-21.362 24.146l28.66 74.653c2.958 7.7 11.6 12.927 21.365 12.927h45.157Z" data-name="Trazado 12672" opacity=".4" transform="translate(18.472 197.591)"/><path fill="#fff" d="M320.442 298.675H563.46a16.8 16.8 0 0 0 16.8-16.8v-148.95a16.806 16.806 0 0 0-16.8-16.8H320.442a16.8 16.8 0 0 0-16.8 16.8v148.95a16.8 16.8 0 0 0 16.8 16.8" data-name="Trazado 12550"/><path fill="url(#e)" d="M149.5 171.349h113.377a15.558 15.558 0 0 0 15.513-15.51V42.458a15.558 15.558 0 0 0-15.513-15.508H149.5a15.557 15.557 0 0 0-15.51 15.508v113.381a15.558 15.558 0 0 0 15.51 15.51" data-name="Trazado 12553" opacity=".3" transform="translate(-78.903 51.197)"/><path fill="#fff" d="M129.846 179.663h16.749a3.936 3.936 0 0 0 3.923-3.926v-13.931a3.936 3.936 0 0 0-3.923-3.926h-16.749a3.937 3.937 0 0 0-3.926 3.926v13.927a3.937 3.937 0 0 0 3.926 3.93" data-name="Trazado 12554"/><path fill="#294859" d="M418.727 306.075s14.939 4.152 30 32.59 18.665 45.511 20.979 58.327-.258 30.125-3.857 35.675h-69.6a9.566 9.566 0 0 0-6.869-3.952c-4.755-.525-84.894 0-84.894 0s1.206-13.9-5.211-18.265l10.163-7.519 9.894.194s1.589-24.856 3.108-39.677a88.971 88.971 0 0 1 14.838-40.433c8.018-12.045 20.747-22.131 36.617-22.937s44.832 6 44.832 6" data-name="Trazado 12555"/><path fill="#fff" d="m374.498 300.08-.235-11.6s-6.675.58-9.149-4.341-2.488-14.5-2.4-20.507.818-16.7.818-16.7.742 3.746 7.594 3.79 15.595-.429 18.764 3.683l1.954 5.846s7.728-2.636 10.256 5.359-6.768 9.418-9.853 7.89c0 0-7.188 6.988-8.308 13.849s.751 16.734 4.251 18.889c0 0-6.481 9.523-10.079 9.2s-3.613-15.358-3.613-15.358" data-name="Trazado 12556"/><path fill="#fff" d="M252.424 428.717a12.314 12.314 0 0 1 2.824-8.337 55.36 55.36 0 0 1 7.47-7.052h27.268s8.9-1.531 9.294-2.879c0 0 6.434 3.758 5.211 18.268h-27s-.821-2.908 3.1-4.062 8.977-2.645 8.977-2.645a5.315 5.315 0 0 0-3.256-1.087 15.5 15.5 0 0 0-8.429 2.508c-2.239 1.543-3.984 5.286-3.984 5.286Z" data-name="Trazado 12557"/><path fill="#fff" d="M341.448 411.098s4.019-10.975 13.579-10.88l-8.563 10.04s7.084.476 8.83-.571l8.435-8.424a84.74 84.74 0 0 1 10.105 4.184c3.668 1.986 7.319 2.549 16.186 1.815 0 0 6.168 4.089 7.325 10.741s-1.1 14.661-1.1 14.661a6.6 6.6 0 0 0-5.97-3.662c-4.37 0-36.667-.731-36.667-.731s-4.686-.27-7.113-3.549c0 0-4.6-.989-5.814-3.065a7.969 7.969 0 0 1-1.253-3.384s-2.024-1.279-1.647-3.2 3.662-3.975 3.662-3.975" data-name="Trazado 12558"/><path fill="url(#b)" d="M44.7 278.682s-14.327-31.265-18.106-40.6-12.825-31.36-16.459-45.461-7.325-26.782-5.266-37.241 13.716-9.784 17.616-7.9S35.2 158.269 35.2 158.269s-1.45-19.785-2.268-34.564-.664-31.52 4.341-43.455 14.931-12.335 20.182-7.893 12.966 16.143 14.83 44.415-.006 63.332-1.1 75.943-3.585 35.341-3.585 35.341 5.028-16.63 11.958-26.367 11.912-10.619 16.618-8.827 5.2 13 1.366 24.3-16.685 40.668-22.021 50.472-5.936 10.871-5.936 10.871-15.18 1.563-24.888.177" data-name="Trazado 12559" opacity=".4" transform="translate(475.505 132.51)"/><path d="M363.088 251.848s-4.348-3.193-2.076-10.848 9.633-8.774 19.28-9.8 22.7.374 28.768 6.055 6.321 12.063 6.321 12.063-3.778 18.932-4.692 25.39-2.665 12.637 2.665 14.629 15.131 2.621 16.29 11.576-1.58 10.308-1.58 10.308l-9.337-5.141s-14 6.89-23.923 3.836-11.54-12.054-11.464-16.939 1.856-11.318 5.382-15.392 3.909-3.845 3.909-3.845 6.472 2.355 9.212-5.011-6.263-9.717-9.9-8.073l-2.1-6.736a11.276 11.276 0 0 0-8.055-3.1c-5.4-.084-9.853.171-12.593-.6s-5.628-2.146-6.113-4.245Z" data-name="Trazado 12560"/><path d="m373.895 288.497.6 11.581-7.348 1.406a9.6 9.6 0 0 1-2.436-6.13c.049-3.535 3.135-8 3.135-8s4.892 1.74 6.046 1.14" data-name="Trazado 12561"/><path fill="#294859" d="M588.003 153.235h-276.68v-31.236s2.154-14.165 15.366-14.165h245.034s14.252.043 16.143 14.165Z" data-name="Trazado 12562"/><path fill="#fff" d="m336.417 426.722 2.685-7.278s2.166 4.176 4.468 4.306Z" data-name="Trazado 12564"/><path fill="#fff" d="m345.938 410.528 19.278-20.515 4.819 3.984-13.623 15.295Z" data-name="Trazado 12565"/><path fill="url(#b)" d="M114.289 161.462h119.766a6.3 6.3 0 0 0 6.313-6.759c0-6.8-5.97-6.756-5.97-6.756H66.128v4.21h45.14a4.913 4.913 0 0 1 2.888 5.5Z" data-name="Trazado 12566" opacity=".4" transform="translate(155.884 281.055)"/><path fill="#1a1a1a" d="m201.259 372.492-7.968-20.481s-1.885-4.025 4.37-6.339l33.074-.171s3.387-.023 5.185 4.219 8.331 20.823 8.331 20.823a6.034 6.034 0 0 1-5.44 6.345 56.909 56.909 0 0 1-12.35 0s3.384-11.99 3.274-12.254-.244-7.136-.244-7.136l-21.139-.029s-5.892 7.142-7.093 15.023" data-name="Trazado 12567"/><path fill="url(#b)" d="m231.837 151.591-18.973 12.35-99.6-.038s-2.984-1.334-3.659-2.7v6.2s.7 2.827 3.094 2.966h100.33l18.062-11.387a3.777 3.777 0 0 0 .731-2.4c-.133-1.285.014-4.985.014-4.985" data-name="Trazado 12568" opacity=".4" transform="translate(38.351 287.977)"/><path fill="#1a1a1a" d="m166.3 433.212-17.656 11.613s-2.125 3.32 0 5.356 3.8 1.719 3.8 1.719l98.775.017 18.222-11.863s2.6-4.735-2.027-6.533l-45.4-.31-.232 9.757-5.19 3.21-20.385-.064-.3-13.237Z" data-name="Trazado 12569"/><path fill="#1a1a1a" d="m544.064 403.322-3.857 7.386s11.5-1.1 12.077-3.216-8.221-4.17-8.221-4.17" data-name="Trazado 12570"/><path fill="#1a1a1a" d="m511.208 403.322 3.491 7.386s-14.011-.844-14.4-3.633 10.909-3.753 10.909-3.753" data-name="Trazado 12571"/><path fill="#1a1a1a" d="m552.667 407.492-2.885 25.027h-46.856l-2.639-24.824s6.443 3.964 26.19 3.964 26.19-4.167 26.19-4.167" data-name="Trazado 12572"/><path fill="#fff" d="M328.756 137.951a7.415 7.415 0 1 0 7.415-7.415 7.413 7.413 0 0 0-7.415 7.415" data-name="Trazado 12573"/><path fill="#fff" d="M357.448 137.951a7.415 7.415 0 1 0 7.415-7.415 7.413 7.413 0 0 0-7.415 7.415" data-name="Trazado 12574"/><path fill="#fff" d="M386.132 137.951a7.415 7.415 0 1 0 7.415-7.415 7.413 7.413 0 0 0-7.415 7.415" data-name="Trazado 12575"/><path fill="#fff" d="M229.49 357.498s-7.223 3.517-10.874 38.4-2.027 50.281-2.027 50.281l-20.385-.064s-.293-21.44 1.1-42.979 4.257-38.783 11.048-45.667Z" data-name="Trazado 12576"/><path fill="#1a1a1a" d="M229.49 357.498v7.136s-2.7 6.385-4.367 21.681-2.8 30.719-2.816 39.329-.528 17.326-.528 17.326l-5.19 3.21s-.122-20.759.928-36.006 2.381-30.189 5.2-38.511 3.042-10.723 6.768-14.165" data-name="Trazado 12577"/><path fill="#fff" d="m138.025 168.77 27.825 56.643s-3.14 19.419-12.138 30.351h-32.766s-8.514-11.344-11.222-29.98Zm-.238 61.189a8.934 8.934 0 1 0-8.934-8.931 8.931 8.931 0 0 0 8.934 8.931" data-name="Trazado 12579"/><path fill="#1a1a1a" d="M241.327 170.36a9.475 9.475 0 1 0 9.473-9.473 9.473 9.473 0 0 0-9.473 9.473" data-name="Trazado 12580"/><path fill="#1a1a1a" d="M16.681 170.36a9.475 9.475 0 1 0 9.473-9.473 9.473 9.473 0 0 0-9.473 9.473" data-name="Trazado 12581"/><path fill="#1a1a1a" d="M122.03 272.966h32.01a3.541 3.541 0 0 0 3.529-3.532v-5.071a3.543 3.543 0 0 0-3.529-3.532h-32.01a3.544 3.544 0 0 0-3.532 3.532v5.072a3.542 3.542 0 0 0 3.532 3.532" data-name="Trazado 12582"/><path fill="#1a1a1a" d="M274.456 428.718a13.159 13.159 0 0 1 5.417-6.608c4.051-2.378 9.262-.4 9.262-.4s-.133.786-4.442 1.554-8.374 1.577-7.333 5.738Z" data-name="Trazado 12583"/><path fill="#fff" d="M363.088 245.976v5.872s-4.349-3.193-2.076-10.851 9.636-8.772 19.28-9.8c-5.985.792-12.463 9.209-11.779 12.938.687 3.746 7.455 3.97 13.025 4.654a11.656 11.656 0 0 1 7.5 4.419 11.928 11.928 0 0 0-7.249-2.389c-5.4-.084-9.853.171-12.593-.6s-5.628-2.149-6.113-4.245" data-name="Trazado 12584"/><path fill="#fff" d="M383.343 292.977c.081-4.883 1.856-11.318 5.382-15.392a32.946 32.946 0 0 1 3.294-3.462c-1.7 4.6-11.648 34.483 15.995 35.075.713.017 1.369.041 1.995.07-4.66 1.273-10.4 2.123-15.2.644-9.926-3.053-11.541-12.051-11.463-16.934" data-name="Trazado 12585"/><path fill="#fff" d="M370.616 300.771c.043.043-3.465.713-3.465.713a9.6 9.6 0 0 1-2.433-6.13c.049-3.535 3.135-8 3.135-8l2.763 1.308s-4.625 8.18 0 12.106" data-name="Trazado 12586"/><path fill="#1a1a1a" d="M396.249 433.339h175.359c0-1.354-175.359-1.354-175.359-1.354-.679 1.055-.374 1.354 0 1.354" data-name="Trazado 12587"/><path fill="#1a1a1a" d="M226.657 377.564h11.286a7.225 7.225 0 0 0 6.043-2.94 5.1 5.1 0 0 0 .6-4.77l-8.061-20.988a6.957 6.957 0 0 0-6.643-4.068H199.29a7.227 7.227 0 0 0-6.046 2.94 5.08 5.08 0 0 0-.586 4.773l8.05 20.988c1.27-.493-6.785-21.481-6.785-21.481a3.7 3.7 0 0 1 .444-3.512 5.948 5.948 0 0 1 4.924-2.355h30.592a5.612 5.612 0 0 1 5.379 3.2l8.055 20.991a3.718 3.718 0 0 1-.449 3.517 5.953 5.953 0 0 1-4.924 2.346h-11.287c-.676 1.055-.377 1.357 0 1.357" data-name="Trazado 12589"/><path fill="#1a1a1a" d="M216.587 446.803c.679-84.314 13.052-88.641 13.173-88.67-.818-1.235-13.849 2.038-13.849 87.991a.673.673 0 0 0 .676.678" data-name="Trazado 12590"/><path fill="#1a1a1a" d="M222.012 443.59c1.012-52.351 5.631-71.744 8.351-78.709-4.019 6.553-8.7 26.126-9.03 78.025.673.684.679.684.679.684" data-name="Trazado 12591"/><path fill="#1a1a1a" d="M195.903 446.803h21.075c.365-.11 5.4-3.32 5.4-3.32-.725-1.14-5.591 1.963-5.591 1.963h-20.209c.067-82.984 12.367-87.284 12.492-87.313-.824-1.235-13.846 2.038-13.846 87.991a.674.674 0 0 0 .679.678" data-name="Trazado 12592"/><path fill="#1a1a1a" d="M229.615 365.574c.679-.676.679-8.1.679-8.1-.679-.679-21.371-.679-21.371-.679 0 1.354 20.014 1.354 20.014 1.354v6.753a.673.673 0 0 0 .679.676" data-name="Trazado 12593"/><path fill="#1a1a1a" d="M152.15 452.596h98.146a5.053 5.053 0 0 0 2.743-.806l15.464-9.9a5.077 5.077 0 0 0-2.737-9.354h-43.377c0 1.357 43.377 1.357 43.377 1.357a3.72 3.72 0 0 1 2 6.858l-15.464 9.9a3.7 3.7 0 0 1-2.007.586H152.15a3.726 3.726 0 0 1-2.007-6.864l15.464-9.9a3.751 3.751 0 0 1 2.007-.58h28.289c0-1.357-28.289-1.357-28.289-1.357a5.109 5.109 0 0 0-2.734.795l-15.47 9.908a5.079 5.079 0 0 0 2.74 9.357" data-name="Trazado 12594"/><path fill="#1a1a1a" d="M152.149 459.158h98.146a5.137 5.137 0 0 0 2.737-.795l15.47-9.905a5 5 0 0 0 2.2-3.019 11.59 11.59 0 0 0-2.94 1.879l-15.464 9.9a3.724 3.724 0 0 1-2.007.586h-98.142a3.638 3.638 0 0 1-3.61-2.83c-.745 2.636 1.238 4.184 3.61 4.184" data-name="Trazado 12595"/><path fill="#1a1a1a" d="M270.037 445.953c.679-.678.679-6.811.679-6.811-1.357 0-1.357 6.133-1.357 6.133a.676.676 0 0 0 .679.678" data-name="Trazado 12596"/><path fill="#1a1a1a" d="M147.952 455.798c.679-.679.679-6.62.679-6.62-1.357 0-1.357 5.941-1.357 5.941a.676.676 0 0 0 .678.679" data-name="Trazado 12597"/><path fill="#1a1a1a" d="M395.152 274.697c5.251-.621 8.244-4.521 7.69-8.757a7.78 7.78 0 0 0-8.69-6.669 7.681 7.681 0 0 0-4.12 1.873 15.5 15.5 0 0 0 4.3-.528 6.389 6.389 0 1 1 1.664 12.669 6.189 6.189 0 0 1-3.384-.476 2.249 2.249 0 0 0 2.543 1.888" data-name="Trazado 12598"/><path fill="#1a1a1a" d="M396.956 271.101c.377-1.244-3.888-4.1-3.888-4.1l4.312-3.662c-.879-1.035-5.875 3.21-5.875 3.21.064 1.084 5.074 4.437 5.074 4.437a.7.7 0 0 0 .377.113" data-name="Trazado 12599"/><path fill="#1a1a1a" d="M281.264 22.174c3.932-.3 6.608-1.693 8.513-3.958a11.084 11.084 0 1 0-8.513 3.958m.041-20.82a9.732 9.732 0 0 1 7.432 15.989 9.73 9.73 0 0 1-14.9-12.515 9.674 9.674 0 0 1 6.61-3.436 9.52 9.52 0 0 1 .858-.038" data-name="Trazado 12600"/><path fill="#1a1a1a" d="M427.342 311.892c2.8-1.519 3.857-4.77 3.3-9.233s-2.337-7.673-5.28-9.569a13.523 13.523 0 0 0-2.16-1.1 31.629 31.629 0 0 0-3.975-1.229c-2.592-.673-5.037-1.314-6.9-3.036a7.318 7.318 0 0 1-1.879-6.478c2.778-20.611 5.562-31.659 5.591-31.766a16.532 16.532 0 0 0-7.667-13.565c-11.5-7.733-28.014-5.718-34.588-4.495-4.625.864-10.987 2.6-12.889 7.676a14.53 14.53 0 0 0 1.142 13.214 20.791 20.791 0 0 1 .128-12.738c1.662-4.431 7.568-6.014 11.866-6.814 6.405-1.2 22.5-3.184 33.581 4.289a15.191 15.191 0 0 1 7.084 12.2c-.287 1.171-2.946 12.179-5.6 31.821a8.655 8.655 0 0 0 2.305 7.655c2.114 1.954 4.84 2.665 7.475 3.352a30.849 30.849 0 0 1 3.81 1.169 12.338 12.338 0 0 1 1.94.989c2.587 1.667 4.158 4.555 4.666 8.595.278 2.253.354 6.263-2.3 7.8-.122 1.142.11 1.264.342 1.264" data-name="Trazado 12601"/><path fill="#1a1a1a" d="M450.691 415.371c-23.441-20.666-71.095-12.967-71.576-12.883.7 1.258 47.755-6.347 71.147 12.736a.713.713 0 0 0 .429.148" data-name="Trazado 12602"/><path fill="#1a1a1a" d="M465.854 433.34c14.536-27.306-4.387-75.865-19.59-100.144a138.841 138.841 0 0 0-11.721-16.56c-4.129-4.848-9.81-8.05-15.76-11.164 5.422 4.373 10.752 7.377 14.728 12.037a139.127 139.127 0 0 1 11.6 16.4c15.041 24.03 33.808 72 20.138 98.439.389.966.5.989.6.989" data-name="Trazado 12603"/><path fill="#1a1a1a" d="M319.332 403.609a101.167 101.167 0 0 0 1.467-12.4c.246-3.271.493-6.542.687-9.83 1-16.856 2.908-36.232 13.005-52.914 6.2-10.245 17.213-23.186 34.477-26.7 1.406-.287 5.646-1.021 5.646-1.021l-.232-1.337s-4.265.742-5.683 1.029c-17.743 3.61-29.026 16.853-35.368 27.324-10.259 16.949-12.19 36.519-13.2 53.531-.194 3.285-.438 6.55-.684 9.813-.287 3.859-.583 7.841-.792 11.784a6.448 6.448 0 0 0 .676.716" data-name="Trazado 12604"/><path fill="#1a1a1a" d="M373.466 289.181c.623 0 1.285-.035 1.992-.093 2.273-.2 5.605-.594 7.931-1.067-2.54-.87-5.811-.476-8.047-.287a13.6 13.6 0 0 1-5.466-.4c-2.418-.768-4.068-2.592-5.048-5.591-1.638-4.987-1.551-10.407-1.467-15.647l.029-1.978c.064-4.553.2-14.017.307-17.523-1.464 3.474-1.6 12.947-1.664 17.505l-.029 1.969c-.084 5.356-.174 10.891 1.534 16.1 1.128 3.439 3.068 5.55 5.927 6.455a13.145 13.145 0 0 0 4 .557" data-name="Trazado 12605"/><path fill="#1a1a1a" d="M378.653 259.897c-.539-.087-.9.145-1.058 2.1-.174 2.175.389 2.558.879 2.54s.977-.693.954-2.244-.064-2.282-.774-2.392" data-name="Trazado 12606"/><path fill="#1a1a1a" d="M365.074 259.01c-.536-.1-.908.113-1.128 2.059-.249 2.172.3 2.572.789 2.569s1-.658 1.029-2.212.014-2.282-.69-2.415" data-name="Trazado 12607"/><path fill="#1a1a1a" d="M363.088 255.095a4.631 4.631 0 0 1 4.41-.754c-2.555-2.056-4.007-1.171-4.857-.438.067 1.113.255 1.192.447 1.192" data-name="Trazado 12608"/><path fill="#1a1a1a" d="M377.801 316.119c3.77 0 9.914-7.49 11.19-9.1-4.234 3.152-9.552 8.395-11.558 7.681-2.294-.89-2.6-9.412-2.256-14.577l-.606-11.5c-1.354.075-.748 11.494-.748 11.494-.162 2.314-.763 14.345 3.12 15.844a2.36 2.36 0 0 0 .858.157" data-name="Trazado 12609"/><path fill="#1a1a1a" d="M366.673 301.58c-3.952-7.42 1.989-13.689 2.05-13.75-1.044-.873-7.754 6.211-2.6 13.463a.672.672 0 0 0 .554.287" data-name="Trazado 12610"/><path fill="#1a1a1a" d="M391.946 261.344c.244-2.56-.8-6.661-1.58-7.417-3.764-3.642-9.592-3.773-14.733-3.886-6.2-.142-11.547-.261-12.318-5.994-.42 7.064 6.04 7.206 12.286 7.348 5.132.113 10.439.232 13.823 3.509a29.283 29.283 0 0 1 1.862 5.924.681.681 0 0 0 .661.516" data-name="Trazado 12611"/><path fill="#1a1a1a" d="M400.225 311.233c8.957 0 18.019-4.3 18.538-4.55-.757-1.14-17.645 6.866-27.541 1.055-4.318-2.529-6.727-7.368-7.162-14.388-.568-9.091 5.8-16.769 8.975-19.063-4.166 1.338-10.933 9.495-10.333 19.148.467 7.5 3.1 12.709 7.832 15.476a18.992 18.992 0 0 0 9.688 2.323" data-name="Trazado 12612"/><path fill="#1a1a1a" d="M423.138 403.61c3.021-24.407-10.187-63.77-10.323-64.165-1.151.824 11.967 39.914 9.647 63.422.632.742.652.742.676.742" data-name="Trazado 12613"/><path fill="#1a1a1a" d="M374.026 278.264a4.774 4.774 0 0 0 2.775-.821 6.426 6.426 0 0 0 2.372-4.305c-1.357-.107-1.595 2.134-3.146 3.2a4.316 4.316 0 0 1-3.688.325c.365 1.508 1.053 1.606 1.688 1.606" data-name="Trazado 12614"/><path fill="#1a1a1a" d="M396.249 433.34c1.633-4.651 2.514-9.1 1.725-14.087-1.778-11.219-10.851-17.01-18.338-16.8-2.036.061-3.613.406-6.582 2.1 3.41-.38 4.773-.684 6.623-.742 7-.2 15.3 5.214 16.955 15.664.754 4.747-.064 8.873-1.041 13.037.554.826.606.832.658.832" data-name="Trazado 12615"/><path fill="#1a1a1a" d="M340.189 407.941c-8.487-4.007-18.8-5.4-30.45-5.486 11.509 1.438 21.69 2.816 30.25 5.46a.79.79 0 0 0 .2.026" data-name="Trazado 12616"/><path fill="#1a1a1a" d="M304.483 429.396a17.749 17.749 0 0 0 .647-8.554 19.068 19.068 0 0 0-5.388-11.146c1.763 3.662 3.352 6.965 4.045 11.358a25.548 25.548 0 0 1 .02 7.574c.618.768.647.768.676.768" data-name="Trazado 12617"/><path fill="#1a1a1a" d="M349.364 402.501c-10.688-41.93-1.722-66.713-1.633-66.954-1.363-.235-10.491 24.92.98 66.455a.677.677 0 0 0 .652.5" data-name="Trazado 12618"/><path fill="#1a1a1a" d="M270.17 443.193h119.322a7.436 7.436 0 1 0 0-14.873h-166.77c0 1.357 166.77 1.357 166.77 1.357a6.081 6.081 0 1 1 0 12.161H270.17c-.679 1.056-.377 1.354 0 1.354" data-name="Trazado 12619"/><path fill="#1a1a1a" d="M367.574 274.106c-.534-1.783-2.4-5.011-2.163-6.205a24.54 24.54 0 0 1 3.694-.5c.652-.644 1.16-11.712 1.16-11.712-1.357-.067-1.833 10.39-1.833 10.39-.661.046-1.792.142-3.1.342a1.445 1.445 0 0 0-1.25 1.227c-.354 1.812 1.85 5.6 3.149 6.368a.629.629 0 0 0 .345.1" data-name="Trazado 12620"/><path fill="#1a1a1a" d="M346.192 420.573c3.282 0 7.829-.684 14.052-2.763-12.965 2.908-18.236 1.163-19.927.229a3.426 3.426 0 0 1-1.815-2.105c-.592-2.517 3.175-3.883 3.767-4.08 1.38-.052 14.826-.65 19.6-3.735-5.353 1.844-19.6 2.381-19.738 2.386-.406.1-5.872 1.8-4.95 5.736a4.723 4.723 0 0 0 2.476 2.978 13.337 13.337 0 0 0 6.535 1.354" data-name="Trazado 12623"/><path fill="#1a1a1a" d="M341.188 412.23c.626-.415 3.894-6.359 6.733-8.7 2.775-2.288 7.742-2.7 7.791-2.7-.325-1.34-5.547-.91-8.656 1.656-3.039 2.508-6.327 8.493-6.466 8.746.374.977.487 1 .6 1" data-name="Trazado 12625"/><path fill="#1a1a1a" d="M382.587 408.501a73.125 73.125 0 0 0 8.25-.536c-3.677-.9-13.243-.165-15.337-2.036a23.564 23.564 0 0 0-11.213-5.341c-.133 1.351 5.689 2.239 10.308 6.356 1.366 1.221 4.692 1.557 7.992 1.557" data-name="Trazado 12626"/><path fill="#1a1a1a" d="M368.049 429.678c-.058-1.366-2.763-1.583-4.55-1.624-10 .119-15.577-1.177-17.526-3.993 2.233 5.6 13.06 5.422 16.633 5.359 2.607.032 5.362.252 5.388.258Z" data-name="Trazado 12627"/><path fill="#1a1a1a" d="M382.626 257.065c-2.993-6.324-8.522-3.613-8.577-3.584.8 1.125 5.141-.986 8.012 3.288a.69.69 0 0 0 .565.3" data-name="Trazado 12628"/><path fill="#1a1a1a" d="M537.519 363.695c1.38-5.828 17.819-129.269-6.385-156.621a14.529 14.529 0 0 0-11.144-5.359 12.012 12.012 0 0 0-9.3 4.347c-9.035 10.311-10.8 39.117-5.231 85.614-4.094-45.612-2.4-74.853 6.246-84.72a10.514 10.514 0 0 1 8.108-3.883 13.3 13.3 0 0 1 10.306 4.9c23.792 26.886 6.9 153.675 6.727 154.954.612.768.641.768.673.768" data-name="Trazado 12629"/><path fill="#1a1a1a" d="M514.931 411.873c.11-2-49.211-103.719-38.073-127.276a7.4 7.4 0 0 1 5.144-4.381 18.242 18.242 0 0 1 16.128 3.555c27.219 21.177 28.869 116.542 28.887 117.5 1.3-3.967-.322-96.992-28.052-118.574a19.6 19.6 0 0 0-17.282-3.8 8.779 8.779 0 0 0-6.055 5.124c-11.41 24.143 36.641 123.266 38.691 127.474a.683.683 0 0 0 .612.383" data-name="Trazado 12630"/><path fill="#1a1a1a" d="M525.808 412.339c.818-1.453 15.29-87.179 36.823-87.179a8.376 8.376 0 0 1 1.311.1 5.942 5.942 0 0 1 4.729 3.488c7.876 16.5-29.064 81.273-29.438 81.925 2.72-2.012 38.839-65.371 30.664-82.511a7.3 7.3 0 0 0-5.738-4.239c-23.641-3.747-38.404 83.894-39.021 87.626.6.783.635.789.67.789" data-name="Trazado 12631"/><path fill="#1a1a1a" d="M428.882 299.162h41.793c0-1.354-41.793-1.354-41.793-1.354-.679 1.053-.374 1.354 0 1.354" data-name="Trazado 12632"/><path fill="#1a1a1a" d="M319.891 299.162h44.951c0-1.354-44.951-1.354-44.951-1.354a15.621 15.621 0 0 1-15.6-15.6v-39.645c-1.354 0-1.354 39.642-1.354 39.642a16.975 16.975 0 0 0 16.954 16.957" data-name="Trazado 12633"/><path fill="#1a1a1a" d="M545.882 299.162h18.126a16.977 16.977 0 0 0 16.957-16.957V132.62a16.977 16.977 0 0 0-16.957-16.957H319.891a16.975 16.975 0 0 0-16.957 16.957v47.372c1.354 0 1.354-47.372 1.354-47.372a15.619 15.619 0 0 1 15.6-15.6h244.12a15.618 15.618 0 0 1 15.6 15.6v149.584a15.621 15.621 0 0 1-15.6 15.6h-18.126c-.679 1.053-.374 1.354 0 1.354" data-name="Trazado 12634"/><path fill="#1a1a1a" d="M328.756 162.45h232.741c0-1.354-232.741-1.354-232.741-1.354-.679 1.053-.377 1.354 0 1.354" data-name="Trazado 12635"/><path fill="#1a1a1a" d="M336.17 146.043a8.093 8.093 0 1 0-8.093-8.093 8.1 8.1 0 0 0 8.093 8.093m0-14.829a6.737 6.737 0 1 1-6.739 6.736 6.746 6.746 0 0 1 6.739-6.736" data-name="Trazado 12636"/><path fill="#1a1a1a" d="M393.549 146.043a8.093 8.093 0 1 0-8.09-8.093 8.1 8.1 0 0 0 8.09 8.093m0-14.829a6.737 6.737 0 1 1-6.736 6.736 6.743 6.743 0 0 1 6.736-6.736" data-name="Trazado 12638"/><path fill="#1a1a1a" d="M513.255 197.2c.679-.679.679-35.428.679-35.428-1.357 0-1.357 34.75-1.357 34.75a.678.678 0 0 0 .679.679" data-name="Trazado 12639"/><path fill="#1a1a1a" d="M549.782 433.197c.673-.6 3.558-26.048 3.558-26.048-1.345-.148-4.231 25.294-4.231 25.294.623.754.65.754.673.754" data-name="Trazado 12640"/><path fill="#1a1a1a" d="M502.926 433.198c.67-.754-2.212-26.2-2.212-26.2-1.345.148 1.54 25.593 1.54 25.593a.675.675 0 0 0 .673.6" data-name="Trazado 12641"/><path fill="#1a1a1a" d="M526.355 412.337c9.337 0 26.99-1.1 26.99-5.266 0-2.2-6.5-3.642-9.294-4.158 5.193 2.343 7.771 3.694 7.942 4.193 0 1.334-8.806 3.877-25.639 3.877s-25.636-2.543-25.636-3.912c0-.644 2.21-2.111 10.564-3.077-11.921.009-11.921 2.32-11.921 3.077 0 4.164 17.659 5.266 26.993 5.266" data-name="Trazado 12642"/><path fill="#1a1a1a" d="M536.458 402.501c.635-.432 25.671-65.327 25.671-65.327-1.264-.49-26.306 64.405-26.306 64.405.47.91.554.922.635.922" data-name="Trazado 12643"/><path fill="#1a1a1a" d="M518.978 400.823c-3.062-32.97-26.2-101.863-26.437-102.556-1.05 1.125 22.046 69.88 25.764 101.956a.675.675 0 0 0 .673.6" data-name="Trazado 12644"/><path fill="#1a1a1a" d="M527.695 358.144c.679-.7-3.755-137.083-3.755-137.083-1.357.046 3.077 136.428 3.077 136.428a.675.675 0 0 0 .679.655" data-name="Trazado 12645"/><path fill="#1a1a1a" d="M263.338 429.39c1.74-3.126 4.352-9.444 11.393-12.576-8.093 2.117-10.845 8.783-12.022 11.631.452.925.539.945.629.945" data-name="Trazado 12646"/><path fill="#1a1a1a" d="M273.89 429.396a14.645 14.645 0 0 1 3.952-5.051c2.876-2.5 9.337-3.738 11.75-2.047-2.247-3.222-9.3-1.882-12.164.621a12.213 12.213 0 0 0-4.167 5.541c.455.922.545.937.629.937" data-name="Trazado 12647"/><path fill="#1a1a1a" d="M277.57 429.677c.586-.174.768-.565.635-.913a1.955 1.955 0 0 1 .038-1.691c.879-1.644 4.312-2.447 6.359-2.923 3.59-.809 6.376-1.418 6.823-3.349a25.6 25.6 0 0 1-5.364 1.612c-4.19.98-7.847 1.835-9.012 4.019a3.247 3.247 0 0 0-.113 2.8.678.678 0 0 0 .635.444" data-name="Trazado 12648"/><path fill="#1a1a1a" d="M256.861 429.397c1.65-4.1 6.008-11.506 11.173-13.457-5.889.774-10.619 8.226-11.822 12.6.534.847.589.855.65.855" data-name="Trazado 12649"/><path fill="#1a1a1a" d="M252.464 428.839a24.055 24.055 0 0 1 2.723-7.125 19.547 19.547 0 0 1 8.427-7.768c-5.4 1-8.023 4.561-9.578 7.052-.568.919-2.621 4.848-2.241 7.267a.679.679 0 0 0 .67.574" data-name="Trazado 12650"/><path fill="#1a1a1a" d="M122.7 273.647h30.38a4.888 4.888 0 0 0 4.883-4.886v-3.722a4.886 4.886 0 0 0-4.883-4.88H122.7a4.885 4.885 0 0 0-4.877 4.88v3.723a4.886 4.886 0 0 0 4.877 4.886m30.38-12.135a3.532 3.532 0 0 1 3.526 3.526v3.723a3.533 3.533 0 0 1-3.526 3.529H122.7a3.529 3.529 0 0 1-3.52-3.529v-3.723a3.529 3.529 0 0 1 3.52-3.526Z" data-name="Trazado 12654"/><path fill="#1a1a1a" d="M130.689 180.672h1.488c0-1.357-1.488-1.357-1.488-1.357a4.1 4.1 0 0 1-4.091-4.091v-12.9a4.1 4.1 0 0 1 4.091-4.1h14.664a4.1 4.1 0 0 1 4.1 4.1v12.9a4.1 4.1 0 0 1-4.1 4.091h-1.815c0 1.357 1.815 1.357 1.815 1.357a5.456 5.456 0 0 0 5.454-5.449v-12.9a5.457 5.457 0 0 0-5.454-5.454h-14.664a5.454 5.454 0 0 0-5.446 5.454v12.9a5.453 5.453 0 0 0 5.446 5.449" data-name="Trazado 12657"/><path fill="#1a1a1a" d="M250.803 180.509a10.15 10.15 0 1 0-10.152-10.151 10.163 10.163 0 0 0 10.152 10.149m0-18.944a8.793 8.793 0 1 1-8.795 8.795 8.8 8.8 0 0 1 8.795-8.795" data-name="Trazado 12658"/><path fill="#1a1a1a" d="M82.559 243.241h25.2c0-1.357-25.2-1.357-25.2-1.357a15.621 15.621 0 0 1-15.6-15.6V114.439a15.621 15.621 0 0 1 15.6-15.6h111.839a15.621 15.621 0 0 1 15.6 15.6v111.842a15.621 15.621 0 0 1-15.6 15.6h-26.8c0 1.357 26.8 1.357 26.8 1.357a16.978 16.978 0 0 0 16.957-16.96V114.439a16.978 16.978 0 0 0-16.957-16.96H82.559a16.978 16.978 0 0 0-16.957 16.96v111.842a16.978 16.978 0 0 0 16.957 16.96" data-name="Trazado 12659"/><path fill="#1a1a1a" d="M150.129 171.039h90.291c0-1.357-90.291-1.357-90.291-1.357-.678 1.055-.377 1.357 0 1.357" data-name="Trazado 12660"/><path fill="#1a1a1a" d="M26.152 180.509A10.15 10.15 0 1 0 16 170.358a10.163 10.163 0 0 0 10.152 10.149m0-18.944a8.793 8.793 0 1 1-8.795 8.795 8.8 8.8 0 0 1 8.795-8.795" data-name="Trazado 12661"/><path fill="#1a1a1a" d="M35.631 171.039h90.291c0-1.357-90.291-1.357-90.291-1.357-.679 1.055-.377 1.357 0 1.357" data-name="Trazado 12662"/><path fill="#1a1a1a" d="M425.066 177.494h66.835c0-1.354-66.835-1.354-66.835-1.354-.676 1.055-.374 1.354 0 1.354" data-name="Trazado 12663"/><path fill="#1a1a1a" d="M425.066 192.146h66.835c0-1.357-66.835-1.357-66.835-1.357-.676 1.055-.374 1.357 0 1.357" data-name="Trazado 12664"/><path fill="#1a1a1a" d="M425.066 225.562h66.835c0-1.357-66.835-1.357-66.835-1.357-.676 1.055-.374 1.357 0 1.357" data-name="Trazado 12665"/><path fill="#1a1a1a" d="M425.066 240.214h66.835c0-1.354-66.835-1.354-66.835-1.354-.676 1.055-.374 1.354 0 1.354" data-name="Trazado 12666"/><path fill="#1a1a1a" d="M157.287 89.761c.606-.377 1.78-2.537 4.068-6.075a19.333 19.333 0 0 0-4.669 5.074c.377.977.49 1 .6 1m7.922-12.213c2.033-2.328 3.607-4.419 5.254-6.492-2.717 1.25-4.315 3.352-5.8 5.42.275 1.032.418 1.073.548 1.073m9.705-12.26c2.218-2.2 3.975-4.144 5.736-6.008-2.761.951-4.529 2.905-6.249 4.889.2 1.064.357 1.119.513 1.119m10.723-11.352c2.326-1.986 4.251-3.767 6.182-5.483-2.845.713-4.787 2.508-6.649 4.318.119 1.1.293 1.166.467 1.166m11.703-10.351c2.45-1.78 4.524-3.372 6.6-4.88-2.888.423-4.982 2.03-7.023 3.674.029 1.116.229 1.206.423 1.206m12.631-9.189c2.517-1.511 4.744-2.882 6.985-4.187-2.943.142-5.193 1.525-7.362 2.946-.064 1.137.151 1.241.377 1.241m13.5-7.829c2.618-1.253 4.982-2.375 7.319-3.41-2.911-.2-5.292.937-7.623 2.128-.183 1.145.061 1.282.3 1.282m14.272-6.3c2.659-.951 5.13-1.8 7.583-2.558-2.876-.528-5.376.328-7.823 1.244-.293 1.145-.035 1.314.241 1.314m14.9-4.619c2.688-.641 5.24-1.189 7.745-1.653-2.781-.867-5.359-.31-7.9.316-.429 1.128-.151 1.337.159 1.337" data-name="Trazado 12667"/><path fill="#1a1a1a" d="M412.168 110.058c.661-.882.3-3.755-.887-8.543a56.4 56.4 0 0 0 .217 7.942.674.674 0 0 0 .67.6m-3.717-15.218c.568-.151.763-.534.647-.89a121.298 121.298 0 0 0-2.679-7.386c-.3 2.9.592 5.362 1.389 7.809a.682.682 0 0 0 .644.467m-5.791-14.51a22.412 22.412 0 0 0-2.99-7.954c.081 2.94 1.279 5.26 2.375 7.565a.68.68 0 0 0 .615.389m-7.609-13.643a20.661 20.661 0 0 0-3.917-7.5c.449 2.868 1.943 5.014 3.343 7.183a.689.689 0 0 0 .574.313m-9.343-12.5a19.114 19.114 0 0 0-4.808-6.893c.844 2.784 2.616 4.706 4.294 6.658a.679.679 0 0 0 .513.235m-10.96-11.089a17.9 17.9 0 0 0-5.617-6.168c1.215 2.642 3.23 4.294 5.173 6a.652.652 0 0 0 .444.171m-12.388-9.465a16.842 16.842 0 0 0-6.316-5.344c1.586 2.462 3.813 3.822 5.941 5.231a.674.674 0 0 0 .374.113m-13.544-7.707a16.248 16.248 0 0 0-6.861-4.492c1.882 2.244 4.265 3.311 6.562 4.425a.679.679 0 0 0 .3.067m-14.415-5.936c-2.207-2.154-4.724-2.94-7.255-3.657 2.143 2.012 4.634 2.792 7.032 3.619a.694.694 0 0 0 .223.038m-15-4.251c-2.36-1.914-4.944-2.436-7.528-2.888 2.323 1.786 4.883 2.3 7.38 2.871a.683.683 0 0 0 .148.017m-15.354-2.72a5.463 5.463 0 0 0-3.891-1.815 4.087 4.087 0 0 0 3.374 1.757c.461.055.49.058.519.058" data-name="Trazado 12668"/><path fill="#1a1a1a" d="M119.15 377.146c-2.494-1.757-5.022-2.311-7.42-3 2.073 2.007 4.66 2.575 7.319 2.992a.4.4 0 0 0 .1.009m-14.922-4.344a28 28 0 0 0-6.458-5c1.406 2.546 3.741 3.822 6.171 4.932a.686.686 0 0 0 .287.064m-12.976-8.537a34.12 34.12 0 0 0-4.8-6.794c.606 2.917 2.424 4.86 4.341 6.614a.647.647 0 0 0 .455.18m-9.756-12.089a37.618 37.618 0 0 0-2.981-7.881c-.13 3.013 1.087 5.367 2.4 7.551a.679.679 0 0 0 .583.331m-6.426-14.206c.571-.151.763-.536.644-.89a94.553 94.553 0 0 1-2.125-7.452c-.684 2.937.041 5.48.835 7.878a.686.686 0 0 0 .647.464m-3.691-15.148a42.425 42.425 0 0 0-.371-8.5c-1.064 2.816-.71 5.44-.3 7.931a.685.685 0 0 0 .67.565m-1.654-15.543a45.48 45.48 0 0 0 .47-8.485c-1.345 2.659-1.273 5.3-1.148 7.838a.679.679 0 0 0 .679.647m-.061-15.612a49.589 49.589 0 0 0 1.148-8.418c-1.563 2.5-1.722 5.124-1.827 7.71a6.468 6.468 0 0 0 .678.708m1.241-15.571a54.557 54.557 0 0 0 1.737-8.3c-1.74 2.334-2.1 4.944-2.41 7.542.621.757.65.757.673.757m2.45-15.412a81.226 81.226 0 0 0 2.433-8.1c-1.917 1.876-2.531 4.524-3.1 7.287.574.809.623.815.667.815" data-name="Trazado 12669"/><path fill="url(#b)" d="M74.4 52.432a7.415 7.415 0 1 0 7.415-7.415 7.413 7.413 0 0 0-7.415 7.415" data-name="Trazado 12670" opacity=".4" transform="translate(283.048 85.519)"/><path fill="#1a1a1a" d="M364.86 146.043a8.093 8.093 0 1 0-8.093-8.093 8.1 8.1 0 0 0 8.093 8.093m0-14.829a6.737 6.737 0 1 1-6.739 6.736 6.745 6.745 0 0 1 6.739-6.736" data-name="Trazado 12637"/><path fill="url(#b)" d="m173.886 58.2 27.825 56.643s-3.14 19.419-12.138 30.351h-32.766s-8.514-11.344-11.222-29.98Zm-.238 61.189a8.934 8.934 0 1 0-8.934-8.931 8.931 8.931 0 0 0 8.934 8.931" data-name="Trazado 12671" opacity=".4" transform="translate(-35.861 110.57)"/><g fill="#1a1a1a" data-name="Grupo 9139"><path d="M154.084 256.447c9.183-12.057 12.585-30.351 12.619-30.54-.061-.423-28.072-57.434-28.072-57.434-1.212.6 26.689 57.408 26.689 57.408-.4 2.085-3.839 18.648-11.781 29.487.267 1.035.4 1.079.545 1.079" data-name="Trazado 12651"/><path d="M120.694 256.099c-7.156-11.921-9.943-28.188-10.274-30.2l28.214-56.822c-1.218-.6-29.522 56.411-29.522 56.411-.038.58 2.644 18.529 11.03 30.325a.671.671 0 0 0 .551.287" data-name="Trazado 12652"/><path d="M120.946 256.447h33.138c0-1.357-33.138-1.357-33.138-1.357-.679 1.055-.377 1.357 0 1.357" data-name="Trazado 12653"/><path d="M137.997 212.093c.678-.676.678-42.141.678-42.141-1.357 0-1.357 41.466-1.357 41.466a.673.673 0 0 0 .679.676" data-name="Trazado 12656"/></g><path fill="#1a1a1a" d="M137.996 230.642a9.612 9.612 0 1 0-9.613-9.615 9.621 9.621 0 0 0 9.613 9.615m0-17.868a8.257 8.257 0 1 1-8.258 8.253 8.259 8.259 0 0 1 8.258-8.253" data-name="Trazado 12655"/><path fill="#1a1a1a" d="M177.939 414.01h18.738c0-1.357-18.738-1.357-18.738-1.357-9.534 0-17.865-5.017-20.724-12.495l-28.663-74.655a14.871 14.871 0 0 1 1.78-14.113c3.915-5.7 11-9.105 18.944-9.105h108.8c9.534 0 17.862 5.016 20.724 12.495l28.666 74.65a14.9 14.9 0 0 1-1.783 14.122c-3.92 5.7-11 9.1-18.947 9.1h-63.64c0 1.357 63.64 1.357 63.64 1.357 8.392 0 15.893-3.625 20.063-9.694a16.218 16.218 0 0 0 1.934-15.377l-28.664-74.65c-3.068-7.992-11.9-13.362-21.994-13.362h-108.8c-8.389 0-15.893 3.625-20.06 9.694a16.2 16.2 0 0 0-1.934 15.371l28.658 74.658c3.071 7.992 11.906 13.362 22 13.362" data-name="Trazado 12588"/><path fill="url(#b)" d="m84.3 151.929 2.685-7.278s2.166 4.176 4.468 4.306Z" data-name="Trazado 12673" opacity=".4" transform="translate(252.117 274.793)"/><path fill="url(#b)" d="M75.169 155.015 94.447 134.5l4.819 3.984-13.623 15.295Z" data-name="Trazado 12674" opacity=".4" transform="translate(270.769 255.513)"/><path fill="#1a1a1a" d="M346.506 411.207c.5-.226 18.607-20.353 18.607-20.353l3.958 3.5-13.04 14.4c1.009.913 14.516-13.991 14.516-13.991-.055-.966-5.04-5.364-5.04-5.364-.957.058-19.5 20.684-19.5 20.684.177 1.073.342 1.131.5 1.131" data-name="Trazado 12621"/><path fill="#1a1a1a" d="M336.292 427.79c.278-.058 7.591-3.326 7.591-3.326-.551-1.241-6.507 1.424-6.507 1.424l2.128-7c-1.3-.394-3.862 8.023-3.862 8.023.328.818.487.876.65.876" data-name="Trazado 12622"/><path fill="#1a1a1a" d="M352.634 426a51.976 51.976 0 0 0 9.711-.983c-.42-1.3-14.014 1.517-19.953-2.717a6.055 6.055 0 0 1-2.624-4.381c-1.067 2.392 0 4.178 1.838 5.489 2.836 2.018 7.1 2.592 11.028 2.592" data-name="Trazado 12624"/></g><g data-name="Grupo 9165"><g clip-path="url(#f)" data-name="Grupo 9164" transform="translate(425.312 47)"><path fill="#b3b3b3" d="M24.812 35.754a3.573 3.573 0 0 1-3.182-1.941L7.206 5.755a3.575 3.575 0 1 1 6.357-3.273L27.987 30.54a3.577 3.577 0 0 1-3.175 5.214" data-name="Trazado 12850"/><path fill="#b3b3b3" d="M3.578 28.941a3.578 3.578 0 0 1-1.639-6.758L29.981 7.751a3.576 3.576 0 0 1 3.271 6.361L5.21 28.544a3.555 3.555 0 0 1-1.632.4" data-name="Trazado 12851"/><path fill="#303030" d="M29.308 35.213a3.573 3.573 0 0 1-3.182-1.941L11.7 5.214a3.575 3.575 0 1 1 6.357-3.273L32.483 30a3.577 3.577 0 0 1-3.175 5.214" data-name="Trazado 12852"/><path fill="#303030" d="M8.075 28.4a3.577 3.577 0 0 1-1.639-6.758L34.478 7.21a3.576 3.576 0 0 1 3.271 6.361L9.707 28a3.561 3.561 0 0 1-1.632.4" data-name="Trazado 12853"/></g></g><g data-name="Grupo 9166"><g clip-path="url(#g)" data-name="Grupo 9164" transform="translate(72.312 401)"><path fill="#b3b3b3" d="M16.06 23.142A2.313 2.313 0 0 1 14 21.886L4.664 3.725a2.314 2.314 0 1 1 4.115-2.116l9.336 18.16a2.315 2.315 0 0 1-2.055 3.375" data-name="Trazado 12850"/><path fill="#b3b3b3" d="M2.316 18.731a2.316 2.316 0 0 1-1.061-4.374l18.15-9.341a2.315 2.315 0 0 1 2.117 4.117l-18.15 9.341a2.3 2.3 0 0 1-1.056.257" data-name="Trazado 12851"/><path fill="#303030" d="M18.97 22.792a2.313 2.313 0 0 1-2.06-1.256L7.574 3.375a2.314 2.314 0 1 1 4.115-2.118l9.336 18.16a2.315 2.315 0 0 1-2.055 3.375" data-name="Trazado 12852"/><path fill="#303030" d="M5.227 18.381a2.315 2.315 0 0 1-1.061-4.374l18.148-9.341a2.315 2.315 0 0 1 2.117 4.117L6.283 18.124a2.3 2.3 0 0 1-1.056.257" data-name="Trazado 12853"/></g></g></g></svg>